<svg width="12" height="14" viewBox="0 0 12 14" fill="none" xmlns="http://www.w3.org/2000/svg">
<path fill-rule="evenodd" clip-rule="evenodd" d="M10.3341 1.37527C7.35032 1.04247 4.33882 1.04247 1.35507 1.37527C1.30933 1.38052 1.26583 1.39794 1.22912 1.42573C1.19241 1.45351 1.16382 1.49064 1.14636 1.53324C1.12889 1.57584 1.12317 1.62235 1.1298 1.66791C1.13644 1.71348 1.15518 1.75642 1.18407 1.79227L3.82182 5.05327C4.76664 6.22132 5.28209 7.67818 5.28207 9.18052V11.3473L6.40707 12.1723V9.17977C6.40722 7.67769 6.92266 6.22112 7.86732 5.05327L10.5051 1.79227C10.534 1.75642 10.5527 1.71348 10.5593 1.66791C10.566 1.62235 10.5603 1.57584 10.5428 1.53324C10.5253 1.49064 10.4967 1.45351 10.46 1.42573C10.4233 1.39794 10.3798 1.38052 10.3341 1.37527ZM1.23057 0.257022C4.29728 -0.085674 7.39261 -0.085674 10.4593 0.257022C11.5438 0.378522 12.0666 1.65052 11.3803 2.49952L8.74257 5.76052C7.95945 6.72833 7.53215 7.93556 7.53207 9.18052V13.2823C7.53215 13.3863 7.50338 13.4883 7.44896 13.577C7.39454 13.6656 7.3166 13.7374 7.22381 13.7844C7.13102 13.8315 7.02701 13.8518 6.92334 13.8433C6.81967 13.8347 6.72041 13.7976 6.63657 13.736L4.38657 12.086C4.31537 12.0337 4.25749 11.9654 4.21762 11.8866C4.17775 11.8077 4.15701 11.7206 4.15707 11.6323V9.17977C4.15707 7.93477 3.72957 6.72802 2.94732 5.75977L0.309571 2.50027C-0.377429 1.65127 0.144571 0.378522 1.23057 0.257022Z" fill="black"/>
</svg>
