<svg width="54" height="56" viewBox="0 0 54 56" fill="none" xmlns="http://www.w3.org/2000/svg">
<path d="M47.1778 45.1479C49.9154 41.7461 51.8194 37.7134 52.7288 33.3909C53.6382 29.0684 53.5262 24.5832 52.4022 20.3149C51.2783 16.0466 49.1754 12.1206 46.2717 8.86909C43.3679 5.6176 39.7485 3.13624 35.7198 1.63493C31.6911 0.133622 27.3716 -0.343476 23.1266 0.243999C18.8816 0.831474 14.836 2.46624 11.3321 5.01C7.82824 7.55376 4.96911 10.9317 2.99661 14.858C1.02411 18.7843 -0.00374119 23.1436 1.02321e-05 27.5669C0.00161273 33.9972 2.19567 40.2215 6.19723 45.1479L6.1591 45.1814C6.29254 45.3467 6.44504 45.4885 6.58229 45.6519C6.75385 45.8547 6.93876 46.0456 7.11604 46.2425C7.64725 46.8423 8.20006 47.4133 8.77448 47.9553C8.9524 48.1181 9.13031 48.2769 9.30823 48.4318C9.91823 48.9764 10.5473 49.4896 11.1954 49.9713C11.2793 50.0304 11.3555 50.1072 11.4394 50.1682V50.1446C15.9039 53.3897 21.23 55.1313 26.6894 55.1313C32.1488 55.1313 37.4749 53.3897 41.9394 50.1446V50.1682C42.0233 50.1072 42.0976 50.0304 42.1834 49.9713C42.8315 49.4883 43.4606 48.9751 44.0706 48.4318C44.2485 48.2756 44.4264 48.1168 44.6044 47.9553C45.1775 47.4133 45.7303 46.8423 46.2628 46.2425C46.4401 46.0456 46.6231 45.8547 46.7965 45.6519C46.9319 45.4885 47.0863 45.3467 47.2197 45.1794L47.1778 45.1479ZM26.6875 11.8169C28.3841 11.8169 30.0426 12.3365 31.4533 13.31C32.8639 14.2835 33.9634 15.6671 34.6127 17.286C35.2619 18.9048 35.4318 20.6861 35.1008 22.4047C34.7698 24.1232 33.9528 25.7018 32.7532 26.9408C31.5535 28.1798 30.025 29.0236 28.361 29.3655C26.697 29.7073 24.9723 29.5319 23.4048 28.8613C21.8374 28.1908 20.4976 27.0552 19.5551 25.5983C18.6125 24.1414 18.1094 22.4285 18.1094 20.6763C18.1094 18.3267 19.0132 16.0732 20.6219 14.4118C22.2306 12.7503 24.4125 11.8169 26.6875 11.8169ZM11.4509 45.1479C11.4839 42.5629 12.5011 40.0952 14.2823 38.2788C16.0635 36.4624 18.4656 35.4433 20.9688 35.4419H32.4063C34.9094 35.4433 37.3115 36.4624 39.0927 38.2788C40.8739 40.0952 41.8911 42.5629 41.9242 45.1479C37.7435 49.0388 32.3153 51.1921 26.6875 51.1921C21.0598 51.1921 15.6316 49.0388 11.4509 45.1479Z" fill="black"/>
</svg>
