<svg width="22" height="14" viewBox="0 0 22 14" fill="none" xmlns="http://www.w3.org/2000/svg">
<path d="M16.1862 6.05554L12.2697 7.55896C12.3062 8.92631 11.8581 10.2625 11.0047 11.3315C10.1512 12.4004 8.94741 13.1332 7.60592 13.4004C6.26444 13.6676 4.87168 13.452 3.67382 12.7916C2.47596 12.1312 1.55011 11.0686 1.05993 9.79165C0.569737 8.51467 0.546766 7.1055 0.995072 5.81322C1.44338 4.52094 2.3341 3.42874 3.5098 2.72967C4.6855 2.0306 6.07049 1.76967 7.41997 1.99299C8.76945 2.21631 9.99654 2.90951 10.8844 3.95007L20.2142 0.368658L21.5996 3.97755L19.7951 4.67021L21.1804 8.27911L17.5716 9.66443L16.1862 6.05554ZM7.16399 9.51885C7.64256 9.33515 8.02855 8.96885 8.23705 8.50056C8.44555 8.03226 8.45948 7.50031 8.27578 7.02174C8.09207 6.54317 7.72578 6.15718 7.25748 5.94868C6.78918 5.74018 6.25724 5.72625 5.77867 5.90996C5.3001 6.09366 4.91411 6.45996 4.70561 6.92825C4.49711 7.39655 4.48318 7.9285 4.66688 8.40707C4.85059 8.88564 5.21688 9.27163 5.68518 9.48013C6.15348 9.68863 6.68542 9.70256 7.16399 9.51885Z" fill="black"/>
</svg>
