<svg width="22" height="22" viewBox="0 0 22 22" fill="none" xmlns="http://www.w3.org/2000/svg">
<path d="M20.318 6.14108L19.824 5.28508C19.451 4.63708 19.264 4.31308 18.946 4.18408C18.629 4.05408 18.27 4.15708 17.551 4.36008L16.331 4.70408C15.872 4.81008 15.391 4.75008 14.973 4.53408L14.636 4.34008C14.277 4.11 14.0009 3.77118 13.848 3.37308L13.514 2.37508C13.294 1.71508 13.184 1.38508 12.923 1.19708C12.662 1.00708 12.314 1.00708 11.62 1.00708H10.505C9.811 1.00708 9.464 1.00708 9.202 1.19708C8.941 1.38508 8.832 1.71508 8.612 2.37508L8.278 3.37308C8.12488 3.77132 7.84841 4.11016 7.489 4.34008L7.152 4.53508C6.734 4.75008 6.252 4.81008 5.794 4.70508L4.574 4.36008C3.855 4.15708 3.496 4.05508 3.179 4.18408C2.861 4.31308 2.674 4.63708 2.301 5.28408L1.808 6.14108C1.458 6.74908 1.283 7.05208 1.317 7.37508C1.351 7.69908 1.585 7.95908 2.053 8.48008L3.084 9.63308C3.336 9.95208 3.515 10.5081 3.515 11.0081C3.515 11.5081 3.336 12.0641 3.085 12.3831L2.053 13.5351C1.585 14.0561 1.351 14.3171 1.317 14.6401C1.283 14.9631 1.457 15.2671 1.807 15.8741L2.301 16.7311C2.674 17.3781 2.861 17.7021 3.179 17.8311C3.497 17.9601 3.855 17.8591 4.574 17.6551L5.794 17.3111C6.25289 17.206 6.73412 17.2662 7.153 17.4811L7.489 17.6751C7.849 17.9051 8.125 18.2451 8.277 18.6431L8.611 19.6401C8.831 20.3001 8.941 20.6301 9.202 20.8201C9.464 21.0081 9.811 21.0081 10.505 21.0081H11.62C12.314 21.0081 12.662 21.0081 12.923 20.8191C13.184 20.6301 13.294 20.3001 13.513 19.6401L13.848 18.6431C14 18.2441 14.276 17.9051 14.636 17.6751L14.972 17.4811C15.392 17.2661 15.872 17.2051 16.332 17.3111L17.552 17.6551C18.27 17.8591 18.629 17.9611 18.946 17.8321C19.264 17.7021 19.451 17.3781 19.824 16.7311L20.317 15.8741C20.667 15.2671 20.842 14.9641 20.808 14.6401C20.774 14.3161 20.54 14.0561 20.072 13.5351L19.041 12.3831C18.789 12.0631 18.61 11.5081 18.61 11.0081C18.61 10.5081 18.789 9.95208 19.04 9.63308L20.072 8.48008C20.54 7.96008 20.774 7.69908 20.808 7.37508C20.842 7.05108 20.668 6.74908 20.318 6.14108Z" stroke="white" stroke-width="1.5" stroke-linecap="round" stroke-linejoin="round"/>
<path d="M14.52 11C14.52 11.9283 14.1513 12.8185 13.4949 13.4749C12.8385 14.1313 11.9483 14.5 11.02 14.5C10.0917 14.5 9.2015 14.1313 8.54513 13.4749C7.88875 12.8185 7.52 11.9283 7.52 11C7.52 10.0717 7.88875 9.1815 8.54513 8.52513C9.2015 7.86875 10.0917 7.5 11.02 7.5C11.9483 7.5 12.8385 7.86875 13.4949 8.52513C14.1513 9.1815 14.52 10.0717 14.52 11Z" stroke="white" stroke-width="1.5" stroke-linecap="round" stroke-linejoin="round"/>
</svg>
