<svg width="22" height="22" viewBox="0 0 22 22" fill="none" xmlns="http://www.w3.org/2000/svg">
<g clip-path="url(#clip0_756_100)">
<path d="M22.2653 5.56833C22.1723 5.34435 21.9943 5.16635 21.7703 5.07333C21.6601 5.02636 21.5418 5.00145 21.422 5H16.8386C16.5955 5 16.3624 5.09658 16.1905 5.26849C16.0186 5.44039 15.922 5.67355 15.922 5.91667C15.922 6.15978 16.0186 6.39294 16.1905 6.56485C16.3624 6.73676 16.5955 6.83333 16.8386 6.83333H19.2128L14.0886 11.9575L11.0728 8.9325C10.9876 8.84658 10.8862 8.77839 10.7745 8.73185C10.6628 8.68531 10.543 8.66135 10.422 8.66135C10.301 8.66135 10.1812 8.68531 10.0695 8.73185C9.95775 8.77839 9.85636 8.84658 9.77115 8.9325L4.27115 14.4325C4.18523 14.5177 4.11704 14.6191 4.0705 14.7308C4.02396 14.8425 4 14.9623 4 15.0833C4 15.2043 4.02396 15.3242 4.0705 15.4359C4.11704 15.5476 4.18523 15.6489 4.27115 15.7342C4.35636 15.8201 4.45775 15.8883 4.56945 15.9348C4.68116 15.9814 4.80097 16.0053 4.92198 16.0053C5.04299 16.0053 5.16281 15.9814 5.27451 15.9348C5.38621 15.8883 5.4876 15.8201 5.57282 15.7342L10.422 10.8758L13.4378 13.9008C13.523 13.9868 13.6244 14.0549 13.7361 14.1015C13.8478 14.148 13.9676 14.172 14.0886 14.172C14.2097 14.172 14.3295 14.148 14.4412 14.1015C14.5529 14.0549 14.6543 13.9868 14.7395 13.9008L20.5053 8.12583V10.5C20.5053 10.7431 20.6019 10.9763 20.7738 11.1482C20.9457 11.3201 21.1789 11.4167 21.422 11.4167C21.6651 11.4167 21.8983 11.3201 22.0702 11.1482C22.2421 10.9763 22.3386 10.7431 22.3386 10.5V5.91667C22.3372 5.79688 22.3123 5.67854 22.2653 5.56833Z" fill="white"/>
</g>
<defs>
<clipPath id="clip0_756_100">
<rect width="22" height="22" fill="white"/>
</clipPath>
</defs>
</svg>
