<svg width="16" height="14" viewBox="0 0 16 14" fill="none" xmlns="http://www.w3.org/2000/svg">
<path d="M15.2421 3.14373C14.9495 3.40814 14.6655 3.66477 14.6569 3.9214C14.631 4.17025 14.9237 4.42689 15.1991 4.66796C15.6122 5.0568 16.0167 5.40675 15.9995 5.78781C15.9823 6.16886 15.5433 6.56548 15.1044 6.95431L11.5499 10.1739L10.3278 9.06957L13.9855 5.77225L13.1593 5.02569L11.9372 6.1222L8.70977 3.20594L12.0147 0.227468C12.3503 -0.0758228 12.9097 -0.0758228 13.2282 0.227468L15.2421 2.04722C15.5778 2.33495 15.5778 2.84044 15.2421 3.14373ZM0 11.0837L8.22781 3.64144L11.4552 6.5577L3.22743 14H0V11.0837Z" fill="black"/>
</svg>
