<svg width="19" height="18" viewBox="0 0 19 18" fill="none" xmlns="http://www.w3.org/2000/svg">
<path d="M8.625 13.1666H10.375V9.83329H13.875V8.16663H10.375V4.83329H8.625V8.16663H5.125V9.83329H8.625V13.1666ZM9.5 17.3333C8.28958 17.3333 7.15208 17.118 6.0875 16.6875C5.02292 16.243 4.09688 15.6458 3.30938 14.8958C2.52188 14.1458 1.89479 13.2638 1.42813 12.25C0.976042 11.2361 0.75 10.1527 0.75 8.99996C0.75 7.84718 0.976042 6.76385 1.42813 5.74996C1.89479 4.73607 2.52188 3.85413 3.30938 3.10413C4.09688 2.35413 5.02292 1.76385 6.0875 1.33329C7.15208 0.888848 8.28958 0.666626 9.5 0.666626C10.7104 0.666626 11.8479 0.888848 12.9125 1.33329C13.9771 1.76385 14.9031 2.35413 15.6906 3.10413C16.4781 3.85413 17.0979 4.73607 17.55 5.74996C18.0167 6.76385 18.25 7.84718 18.25 8.99996C18.25 10.1527 18.0167 11.2361 17.55 12.25C17.0979 13.2638 16.4781 14.1458 15.6906 14.8958C14.9031 15.6458 13.9771 16.243 12.9125 16.6875C11.8479 17.118 10.7104 17.3333 9.5 17.3333ZM9.5 15.6666C11.4542 15.6666 13.1094 15.0208 14.4656 13.7291C15.8219 12.4375 16.5 10.8611 16.5 8.99996C16.5 7.13885 15.8219 5.56246 14.4656 4.27079C13.1094 2.97913 11.4542 2.33329 9.5 2.33329C7.54583 2.33329 5.89062 2.97913 4.53437 4.27079C3.17812 5.56246 2.5 7.13885 2.5 8.99996C2.5 10.8611 3.17812 12.4375 4.53437 13.7291C5.89062 15.0208 7.54583 15.6666 9.5 15.6666Z" fill="white"/>
</svg>
