<svg width="26" height="26" viewBox="0 0 26 26" fill="none" xmlns="http://www.w3.org/2000/svg">
<path d="M23.4529 14.8571H23.4576H23.4483H23.4529ZM22.7983 14.3743C22.8911 14.6696 23.1586 14.8553 23.4529 14.8571C23.5179 14.8571 23.5894 14.8386 23.6619 14.82C24.024 14.7086 24.2283 14.3093 24.1076 13.9471C24.0797 13.8636 21.294 5.57141 13 5.57141C4.706 5.57141 1.91936 13.8636 1.8915 13.9471C1.77079 14.3093 1.97507 14.6993 2.33722 14.82C2.70865 14.9407 3.09865 14.7364 3.21936 14.3743L3.22215 14.3696C3.34565 14.0075 5.76365 6.96427 13.0093 6.96427C20.2911 6.96427 22.6961 14.0678 22.7983 14.3743ZM9.75 14.8571C9.75 13.9952 10.0924 13.1685 10.7019 12.559C11.3114 11.9495 12.1381 11.6071 13 11.6071C13.862 11.6071 14.6886 11.9495 15.2981 12.559C15.9076 13.1685 16.25 13.9952 16.25 14.8571C16.25 15.7191 15.9076 16.5457 15.2981 17.1552C14.6886 17.7647 13.862 18.1071 13 18.1071C12.1381 18.1071 11.3114 17.7647 10.7019 17.1552C10.0924 16.5457 9.75 15.7191 9.75 14.8571ZM13 10.2143C11.7686 10.2143 10.5877 10.7034 9.71701 11.5741C8.8463 12.4448 8.35715 13.6258 8.35715 14.8571C8.35715 16.0885 8.8463 17.2694 9.71701 18.1401C10.5877 19.0108 11.7686 19.5 13 19.5C14.2314 19.5 15.4123 19.0108 16.283 18.1401C17.1537 17.2694 17.6429 16.0885 17.6429 14.8571C17.6429 13.6258 17.1537 12.4448 16.283 11.5741C15.4123 10.7034 14.2314 10.2143 13 10.2143Z" fill="white"/>
</svg>
