<svg width="24" height="24" viewBox="0 0 24 24" fill="none" xmlns="http://www.w3.org/2000/svg">
<path d="M12.725 3.506C12.433 3.581 12.155 3.635 11.893 3.723C10.229 4.281 8.56667 4.84334 6.906 5.41C5.654 5.837 4.394 6.244 3.162 6.719C2.858 6.836 2.649 7.176 2.396 7.414C2.666 7.658 2.928 7.908 3.207 8.141C3.29605 8.18923 3.39344 8.22011 3.494 8.23201C5.72 8.78901 7.942 9.361 10.176 9.885C10.6175 9.99567 11.0798 9.99292 11.52 9.877C14.7708 8.85183 18.011 7.79311 21.24 6.701C21.552 6.596 21.755 6.195 22.008 5.93101C21.708 5.709 21.44 5.368 21.102 5.285C19.543 4.902 17.965 4.586 16.392 4.255C15.17 3.999 13.946 3.756 12.725 3.506ZM20.264 8.66101C20.041 8.66447 19.8185 8.68284 19.598 8.716C17.058 9.459 14.568 10.362 12.029 11.112C11.2994 11.3061 10.5349 11.3291 9.795 11.179C8.171 10.858 6.573 10.415 4.979 9.972C4.67907 9.87204 4.36204 9.83362 4.04691 9.85905C3.73178 9.88448 3.42502 9.97324 3.145 10.12C2.857 10.3433 2.60564 10.6102 2.4 10.911C2.671 11.131 2.907 11.459 3.219 11.55C4.563 11.94 5.929 12.265 7.289 12.603C8.449 12.89 9.614 13.163 10.781 13.443C11.151 13.36 11.504 13.309 11.838 13.203C13.485 12.673 15.128 12.128 16.771 11.591C18.295 11.093 19.828 10.617 21.338 10.085C21.6262 9.96527 21.8553 9.73622 21.975 9.448C21.9691 9.32146 21.93 9.19871 21.8615 9.09213C21.793 8.98555 21.6977 8.89893 21.585 8.841C21.1555 8.71854 20.7106 8.65793 20.264 8.66101ZM20.264 12.058C20.0473 12.064 19.8311 12.084 19.617 12.118C17.148 12.845 14.731 13.728 12.262 14.454C11.4829 14.6721 10.6659 14.7189 9.867 14.591C8.586 14.386 7.346 13.954 6.077 13.669C5.107 13.452 4.13 12.887 3.127 13.536C2.844 13.719 2.441 14.02 2.453 14.249C2.466 14.492 2.87 14.832 3.172 14.923C4.367 15.281 5.588 15.561 6.801 15.864C8.111 16.192 9.423 16.514 10.741 16.841C11.185 16.743 11.619 16.684 12.027 16.554C13.823 15.98 15.611 15.386 17.4 14.796C18.73 14.357 20.068 13.933 21.38 13.452C21.5198 13.3909 21.6453 13.3013 21.7486 13.1891C21.8518 13.0768 21.9307 12.9443 21.98 12.8C22.025 12.64 21.736 12.236 21.549 12.206C21.1298 12.0964 20.6972 12.0466 20.264 12.058ZM20.188 15.433C19.9949 15.4418 19.8028 15.4645 19.613 15.501C18.0203 15.9534 16.4458 16.4675 14.893 17.042C12.613 17.879 10.353 18.634 7.926 17.548C7.68538 17.4614 7.43782 17.3955 7.186 17.351L4.152 16.591C3.84489 16.6471 3.54639 16.7429 3.264 16.876C2.95387 17.1137 2.6642 17.377 2.398 17.663C2.707 17.903 2.977 18.269 3.328 18.364C5.644 18.988 7.96967 19.5747 10.305 20.124C10.7496 20.2141 11.2098 20.1907 11.643 20.056C13.761 19.402 15.863 18.699 17.969 18.011C19.107 17.639 20.256 17.288 21.371 16.861C21.5191 16.7942 21.6499 16.6943 21.7532 16.5689C21.8566 16.4436 21.9297 16.2961 21.967 16.138C21.983 15.948 21.59 15.589 21.332 15.542C20.9576 15.4504 20.572 15.4133 20.187 15.432" fill="white"/>
</svg>
