<svg width="305" height="241" viewBox="0 0 305 241" fill="none" xmlns="http://www.w3.org/2000/svg">
<path d="M48.2085 0.208328H256.75C269.514 0.208328 281.755 5.27863 290.78 14.3038C299.805 23.329 304.875 35.5698 304.875 48.3333V192.708C304.875 205.472 299.805 217.713 290.78 226.738C281.755 235.763 269.514 240.833 256.75 240.833H48.2085C35.445 240.833 23.2042 235.763 14.179 226.738C5.1538 217.713 0.0834961 205.472 0.0834961 192.708V48.3333C0.0834961 35.5698 5.1538 23.329 14.179 14.3038C23.2042 5.27863 35.445 0.208328 48.2085 0.208328ZM48.2085 16.25C40.1877 16.25 33.1293 18.9771 27.6752 23.7896L152.479 104.479L277.284 23.7896C271.829 18.9771 264.771 16.25 256.75 16.25H48.2085ZM152.479 123.89L18.2106 36.7833C16.9272 40.3125 16.1252 44.3229 16.1252 48.3333V192.708C16.1252 201.217 19.5054 209.378 25.5222 215.395C31.5389 221.411 39.6995 224.792 48.2085 224.792H256.75C265.259 224.792 273.42 221.411 279.437 215.395C285.453 209.378 288.834 201.217 288.834 192.708V48.3333C288.834 44.3229 288.031 40.3125 286.748 36.7833L152.479 123.89Z" fill="black"/>
</svg>
