<svg width="20" height="20" viewBox="0 0 20 20" fill="none" xmlns="http://www.w3.org/2000/svg">
<g clip-path="url(#clip0_762_619)">
<path d="M19.8417 10.65L12.3417 3.14996C12.0293 2.84003 11.6069 2.66628 11.1667 2.66663H5.33342C4.89139 2.66663 4.46746 2.84222 4.1549 3.15478C3.84234 3.46734 3.66675 3.89127 3.66675 4.33329V10.1666C3.66657 10.3866 3.70993 10.6043 3.79431 10.8074C3.8787 11.0105 4.00244 11.1949 4.15842 11.35L11.6584 18.85C11.9709 19.1599 12.3933 19.3336 12.8334 19.3333C13.2747 19.3314 13.6973 19.1546 14.0084 18.8416L19.8417 13.0083C20.1547 12.6972 20.3316 12.2746 20.3334 11.8333C20.3336 11.6134 20.2902 11.3956 20.2059 11.1925C20.1215 10.9894 19.9977 10.805 19.8417 10.65ZM12.8334 17.6666L5.33342 10.1666V4.33329H11.1667L18.6667 11.8333M7.41675 5.16663C7.66398 5.16663 7.90565 5.23994 8.11121 5.37729C8.31677 5.51464 8.47699 5.70986 8.5716 5.93827C8.66621 6.16668 8.69096 6.41801 8.64273 6.66049C8.5945 6.90297 8.47545 7.12569 8.30063 7.30051C8.12582 7.47533 7.90309 7.59438 7.66061 7.64261C7.41813 7.69084 7.1668 7.66609 6.93839 7.57148C6.70999 7.47687 6.51476 7.31665 6.37741 7.11109C6.24006 6.90553 6.16675 6.66385 6.16675 6.41663C6.16675 6.08511 6.29844 5.76716 6.53287 5.53274C6.76729 5.29832 7.08523 5.16663 7.41675 5.16663Z" fill="white"/>
</g>
<defs>
<clipPath id="clip0_762_619">
<rect width="20" height="20" fill="white"/>
</clipPath>
</defs>
</svg>
